<?xml version="1.0" encoding="UTF-8" standalone="no"?>
<svg
   xmlns:dc="http://purl.org/dc/elements/1.1/"
   xmlns:cc="http://creativecommons.org/ns#"
   xmlns:rdf="http://www.w3.org/1999/02/22-rdf-syntax-ns#"
   xmlns:svg="http://www.w3.org/2000/svg"
   xmlns="http://www.w3.org/2000/svg"
   xmlns:sodipodi="http://sodipodi.sourceforge.net/DTD/sodipodi-0.dtd"
   xmlns:inkscape="http://www.inkscape.org/namespaces/inkscape"
   version="1.1"
   id="Logo"
   x="0px"
   y="0px"
   viewBox="0 0 248 248"
   style="enable-background:new 0 0 248 248;"
   xml:space="preserve"
   sodipodi:docname="twitter.svg"
   inkscape:version="1.0.2 (e86c870879, 2021-01-15)"><metadata
   id="metadata9"><rdf:RDF><cc:Work
       rdf:about=""><dc:format>image/svg+xml</dc:format><dc:type
         rdf:resource="http://purl.org/dc/dcmitype/StillImage" /></cc:Work></rdf:RDF></metadata><defs
   id="defs7" /><sodipodi:namedview
   pagecolor="#ffffff"
   bordercolor="#666666"
   borderopacity="1"
   objecttolerance="10"
   gridtolerance="10"
   guidetolerance="10"
   inkscape:pageopacity="0"
   inkscape:pageshadow="2"
   inkscape:window-width="1920"
   inkscape:window-height="1016"
   id="namedview5"
   showgrid="false"
   inkscape:zoom="1.7379032"
   inkscape:cx="129.8587"
   inkscape:cy="163.73374"
   inkscape:window-x="0"
   inkscape:window-y="27"
   inkscape:window-maximized="1"
   inkscape:current-layer="Logo" />
<g
   id="Logo_1_"
   transform="translate(-0.075,22.496312)">
	<path
   id="white_background"
   d="m 221.95,51.29 c 0.15,2.17 0.15,4.34 0.15,6.53 0,66.73 -50.8,143.69 -143.69,143.69 v -0.04 C 50.97,201.51 24.1,193.65 1,178.83 c 3.99,0.48 8,0.72 12.02,0.73 22.74,0.02 44.83,-7.61 62.72,-21.66 -21.61,-0.41 -40.56,-14.5 -47.18,-35.07 7.57,1.46 15.37,1.16 22.8,-0.87 C 27.8,117.2 10.85,96.5 10.85,72.46 c 0,-0.22 0,-0.43 0,-0.64 7.02,3.91 14.88,6.08 22.92,6.32 C 11.58,63.31 4.74,33.79 18.14,10.71 c 25.64,31.55 63.47,50.73 104.08,52.76 -4.07,-17.54 1.49,-35.92 14.61,-48.25 20.34,-19.12 52.33,-18.14 71.45,2.19 11.31,-2.23 22.15,-6.38 32.07,-12.26 -3.77,11.69 -11.66,21.62 -22.2,27.93 10.01,-1.18 19.79,-3.86 29,-7.95 -6.78,10.16 -15.32,19.01 -25.2,26.16 z" />
</g>
</svg>
